<svg width="226.777" height="226.777" xmlns="http://www.w3.org/2000/svg">

 <g>
  <title>background</title>
  <rect fill="none" id="canvas_background" height="402" width="582" y="-1" x="-1"/>
 </g>
 <g>
  <title>Layer 1</title>
  <path id="svg_1" d="m113.389,0c-62.623,0 -113.389,50.766 -113.389,113.389c0,62.623 50.766,113.39 113.39,113.39c62.623,0 113.39,-50.767 113.39,-113.39c-0.001,-62.623 -50.768,-113.389 -113.391,-113.389zm-22.939,59.588c4.521,-2.803 17.904,18.085 20.436,18.446c2.532,0.362 9.042,-6.148 13.202,-9.585c4.159,-3.435 22.335,-14.829 23.147,-13.653c0.815,1.175 -12.749,9.043 -20.254,14.83c-7.505,5.788 -12.841,14.648 -18.809,14.648c-5.967,0 -16.818,-16.819 -18.355,-18.687c-1.537,-1.868 -1.502,-4.676 0.633,-5.999zm58.533,96.178l-11.331,-47.019l-24.263,29.177l-24.687,-29.177l-11.332,47.019l-21.461,0l21.461,-90.18l36.019,44.126l35.113,-44.126l21.219,90.18l-20.738,0z" fill="#ff9616"/>
 </g>
</svg>